<?xml version="1.0" encoding="UTF-8" standalone="no"?>
<!-- Created with Inkscape (http://www.inkscape.org/) -->

<svg
   xmlns:dc="http://purl.org/dc/elements/1.1/"
   xmlns:cc="http://creativecommons.org/ns#"
   xmlns:rdf="http://www.w3.org/1999/02/22-rdf-syntax-ns#"
   xmlns:svg="http://www.w3.org/2000/svg"
   xmlns="http://www.w3.org/2000/svg"
   xmlns:sodipodi="http://sodipodi.sourceforge.net/DTD/sodipodi-0.dtd"
   xmlns:inkscape="http://www.inkscape.org/namespaces/inkscape"
   version="1.1"
   id="svg2"
   width="1282.0381"
   height="814.95984"
   viewBox="0 0 1282.0381 814.95984"
   sodipodi:docname="sort_hedelands_veteranbane.svg"
   inkscape:version="0.92.4 (5da689c313, 2019-01-14)"
   inkscape:export-filename="C:\Users\benj5\OneDrive\Mit liv\Hedeland\samling\eksempler\logoer\hvb_logo_margin_positiv.png"
   inkscape:export-xdpi="127.22"
   inkscape:export-ydpi="127.22">
  <metadata
     id="metadata8">
    <rdf:RDF>
      <cc:Work
         rdf:about="">
        <dc:format>image/svg+xml</dc:format>
        <dc:type
           rdf:resource="http://purl.org/dc/dcmitype/StillImage" />
        <dc:title />
      </cc:Work>
    </rdf:RDF>
  </metadata>
  <defs
     id="defs6" />
  <sodipodi:namedview
     pagecolor="#ffffff"
     bordercolor="#666666"
     borderopacity="1"
     objecttolerance="10"
     gridtolerance="10"
     guidetolerance="10"
     inkscape:pageopacity="0"
     inkscape:pageshadow="2"
     inkscape:window-width="1920"
     inkscape:window-height="1017"
     id="namedview4"
     showgrid="false"
     inkscape:zoom="0.22627417"
     inkscape:cx="-590.06497"
     inkscape:cy="485.36139"
     inkscape:window-x="1272"
     inkscape:window-y="-8"
     inkscape:window-maximized="1"
     inkscape:current-layer="svg2"
     fit-margin-top="0"
     fit-margin-left="0"
     fit-margin-right="0"
     fit-margin-bottom="0"
     inkscape:object-paths="true"
     inkscape:snap-intersection-paths="true"
     inkscape:snap-smooth-nodes="true"
     inkscape:snap-midpoints="true"
     inkscape:snap-object-midpoints="true"
     inkscape:snap-center="true"
     inkscape:snap-text-baseline="true"
     inkscape:snap-page="true"
     inkscape:snap-nodes="true"
     showguides="false"
     inkscape:pagecheckerboard="true" />
  <rect
     style="opacity:1;fill:#000000;fill-opacity:1;stroke:none;stroke-width:0.66914374;stroke-linecap:round;stroke-linejoin:miter;stroke-miterlimit:4;stroke-dasharray:none;stroke-dashoffset:7.55905533;stroke-opacity:1;paint-order:markers stroke fill"
     id="rect10"
     width="1282.0381"
     height="814.95984"
     x="0"
     y="0" />
  <g
     id="g820"
     transform="translate(10.000145,10.000002)"
     style="fill:#ffffff;fill-opacity:1">
    <path
       sodipodi:nodetypes="csssssssscscccssscsssscssscsssccscccscscsccsccscsssccsscssssscsssssssssssscsssscccccssccsssssssssssscsccscsssssscssssssscccsccccccccccscsccsccccscscc"
       inkscape:connector-curvature="0"
       id="path32"
       d="m 983.6961,446.10554 c -2.1418,-0.14727 -12.8158,-0.97924 -23.7199,-1.84881 -26.2396,-2.09254 -61.61877,-2.22233 -81.07252,-0.29741 -16.31434,1.61427 -35.54586,1.68195 -44.04493,0.155 -11.35432,-2.03992 -19.37304,-6.06502 -24.40749,-12.25162 -4.2522,-5.22534 -5.43896,-9.7526 -5.04698,-19.25346 0.26924,-6.52603 0.5943,-8.1242 2.45602,-12.07511 2.82743,-6.00024 7.87659,-11.5341 11.93682,-13.08263 3.26611,-1.24567 3.88046,-1.24214 23.16649,0.13277 9.26321,0.66038 11.48437,-0.70523 13.85685,-8.51938 0.93541,-3.08089 1.12969,-12.27092 1.36902,-64.75518 0.29696,-65.13251 -0.31933,-90.81426 -2.34063,-97.54351 -0.72215,-2.40432 -2.07332,-4.767 -3.59542,-6.28704 l -2.43844,-2.43519 -5.10424,0.4505 c -2.80731,0.24777 -7.49392,0.75603 -10.41464,1.12947 -7.56081,0.96669 -23.7089,0.89458 -30.21821,-0.13494 -7.96316,-1.25946 -13.01262,-1.14026 -15.30588,0.36131 -1.05254,0.68919 -3.00839,3.4239 -4.34632,6.07712 -5.18839,10.28895 -21.4506,55.82633 -48.13884,134.79828 -22.08402,65.34781 -24.08334,70.61285 -30.44,80.16179 -8.828,13.2614 -17.70587,16.34594 -36.88208,12.81437 -11.06416,-2.03762 -19.12625,-2.04301 -29.35546,-0.02 -15.60454,3.08596 -23.73095,1.25542 -31.46538,-7.08749 -7.01717,-7.56921 -12.30052,-18.263 -19.89091,-40.26024 -11.01746,-31.92909 -41.01609,-121.37925 -49.58992,-147.86766 -10.38891,-32.09602 -12.10699,-36.52601 -15.0702,-38.85788 -1.69299,-1.33229 -2.49243,-1.45004 -7.2144,-1.06256 -14.56543,1.19523 -27.49536,1.24047 -35.12623,0.1229 -14.47287,-2.11961 -18.19673,-1.33865 -20.56088,4.31197 -2.04571,4.88949 -2.39166,17.59282 -2.39586,87.97398 -0.004,73.68911 0.0685,75.71319 2.93229,81.36712 2.58503,5.10372 5.22643,5.66711 17.62365,3.75903 3.69961,-0.56941 8.82934,-1.041 11.39938,-1.04797 5.46904,-0.0149 8.41865,1.60142 13.30375,7.28987 3.4279,3.99163 4.58321,6.06606 5.71208,10.25646 1.04189,3.86758 1.02788,15.64342 -0.0247,20.68056 -2.0431,9.77786 -8.41707,17.92431 -15.71868,20.08974 -4.92891,1.46177 -19.6051,1.38706 -31.66524,-0.16119 -13.84782,-1.77775 -68.39767,-1.76891 -81.54209,0.0132 -4.93143,0.66858 -12.12339,1.21562 -15.98216,1.21562 -12.03618,0 -16.57471,-2.67139 -21.25319,-12.50973 -4.08979,-10.87769 -4.38252,-27.00377 -0.0567,-36.36598 4.88033,-10.23569 8.00334,-12.09689 17.01348,-10.13944 9.73681,2.11532 10.07635,2.11379 12.08971,-0.0546 0.9973,-1.07409 2.16129,-3.25765 2.58664,-4.85236 1.0528,-3.947 2.32921,-33.6815 2.05039,-47.76414 -0.19885,-10.04256 -0.38451,-11.58202 -1.49434,-12.39119 -1.8884,-1.37681 -29.87553,-2.07662 -61.39575,-1.53521 -14.60369,0.25085 -27.22445,0.64036 -28.04617,0.86557 -1.2963,0.35528 -1.55399,1.11802 -1.94716,5.76288 -0.70245,8.2988 -0.52318,40.84418 0.26269,47.69346 1.50294,13.09879 2.27189,13.74841 14.48296,12.23564 9.89072,-1.2253 10.70428,-0.98987 14.70083,4.25434 3.84577,5.04637 5.57496,11.06044 5.99766,20.85965 0.68968,15.98801 -3.86328,27.33957 -12.83713,32.00584 -3.94939,2.05362 -13.76798,2.42897 -25.23085,0.96451 -23.30138,-2.9769 -54.0175,-3.14459 -85.62837,-0.46749 -27.05183,2.29099 -30.19647,1.94687 -36.85685,-4.03336 -6.98349,-6.27033 -10.20515,-15.85236 -9.72497,-28.92452 0.26181,-7.12758 0.50619,-8.31931 2.56048,-12.48657 3.08692,-6.26201 9.29071,-12.02538 14.21395,-13.20485 1.96254,-0.47018 4.77233,-0.67546 6.24398,-0.45618 1.47165,0.21928 5.96415,0.92408 9.98334,1.56623 11.5559,1.84629 14.18936,1.03938 17.16847,-5.26053 2.4512,-5.18354 2.95239,-20.59599 3.05024,-93.80034 0.0962,-71.91438 0.0252,-73.37627 -3.77036,-77.6185 -2.45008,-2.73848 -6.45513,-3.1541 -15.7826,-1.63781 -7.84037,1.27454 -14.88353,1.74606 -17.85951,0.42398 -4.22427,-1.87662 -10.05375,-6.78219 -12.1021,-10.27274 -3.50259,-5.9687 -4.64457,-16.40584 -2.76458,-25.26688 2.08093,-9.80814 8.12303,-16.7737 15.31693,-20.68386 5.17924,-2.81511 10.30549,-2.9678 34.21807,-1.01921 24.21735,1.97343 52.72799,2.25282 68.68152,0.67304 13.68004,-1.35464 35.11398,-1.4218 38.79445,-0.12155 15.28858,5.40125 19.12853,42.27583 5.78962,55.59686 -2.95032,2.94635 -4.52131,3.09611 -13.81472,1.31698 -7.54987,-1.44536 -9.56358,-0.85819 -12.07584,3.52114 -1.68734,2.94138 -1.70179,3.14068 -1.92047,26.47499 l -0.22035,23.5113 h 45.75633 45.75633 l -0.22033,-23.5113 -0.22036,-23.5113 -1.77012,-3.11772 c -2.67459,-4.71068 -2.99513,-4.78845 -12.26867,-2.97698 -7.47049,1.45927 -8.32855,1.502 -10.24887,0.51029 -12.51874,-8.14249 -12.09229,-36.11286 -7.3082,-45.68083 3.43635,-6.60604 4.85772,-8.39863 8.47676,-10.69068 3.20074,-2.02712 3.27327,-2.03724 14.58403,-2.03588 6.25202,7.5e-4 17.89914,0.63653 25.88248,1.41285 18.88632,1.83653 39.58485,1.83892 62.309,0.007 20.34382,-1.63987 31.85491,-1.76677 38.23509,-0.42152 3.56735,0.75217 5.55779,0.79818 8.85071,0.20459 7.0753,-1.2754 27.55488,-0.81374 42.83745,0.96567 17.34621,2.01969 30.89175,2.03039 50.62608,0.04 16.41538,-1.65564 30.14523,-1.92673 35.89904,-0.70881 11.496,2.43339 18.67186,10.41679 21.53141,23.95451 2.64295,12.5124 -1.61624,25.23009 -10.60976,31.68008 -5.37355,3.85383 -8.22984,4.06094 -18.30189,1.32706 -4.25534,-1.15504 -8.01829,-0.70422 -9.16362,1.09784 -0.97934,1.54088 -0.61732,8.42131 0.77269,14.68539 2.32225,10.46516 36.7968,134.0368 38.91185,139.47681 0.86853,2.2339 1.87165,2.48632 2.80998,0.7071 0.93675,-1.77619 13.43009,-42.6881 29.52846,-96.69685 15.03013,-50.42484 15.89814,-54.25974 13.08428,-57.80598 -1.82678,-2.30225 -5.1084,-2.55774 -11.35297,-0.88388 -8.43485,2.26097 -12.76354,1.08488 -18.30889,-4.97446 -5.72195,-6.25232 -7.88921,-12.44725 -7.88921,-22.55065 0,-13.08598 6.18391,-23.57524 16.83897,-28.56256 3.97791,-1.86194 4.29021,-1.89386 17.85583,-1.82515 8.16507,0.0413 18.58113,0.59911 25.49004,1.36494 15.72079,1.74259 37.22849,1.73974 50.98012,-0.007 6.40884,-0.81395 15.18905,-1.32726 23.36586,-1.36602 12.24812,-0.0581 13.29033,0.04 16.04333,1.51017 4.56551,2.43801 7.57387,2.60676 15.46522,0.86747 11.2057,-2.4698 30.67153,-2.69061 52.75059,-0.59837 22.25183,2.10862 46.56804,2.11545 84.16114,0.0236 32.0179,-1.78159 47.3228,-1.90077 58.37,-0.45455 34.2345,4.48173 60.0647,20.5412 70.6944,43.95296 3.5093,7.72911 5.0584,15.67196 5.0128,25.70083 -0.091,19.99263 -6.8169,34.9987 -20.606,45.97426 -5.5244,4.39731 -10.6107,7.04104 -21.6805,11.26918 -5.2988,2.0239 -8.4967,3.62028 -8.4967,4.24159 0,0.63057 3.5088,2.31335 9.5588,4.58434 23.7403,8.91138 38.8758,21.33743 47.4258,38.93598 1.8896,3.88909 3.954,9.21484 4.5877,11.835 4.6333,19.15592 2.0796,41.80173 -6.679,59.22923 -12.4694,24.81079 -41.7818,41.22982 -82.5577,46.2439 -8.6373,1.06209 -30.8355,1.88724 -37.8309,1.40623 z m 19.4716,-58.37456 c 14.1087,-5.12295 21.9744,-12.10019 25.125,-22.28687 5.8709,-18.98221 -5.583,-36.34899 -28.7548,-43.59899 -10.411,-3.25738 -17.1964,-4.12228 -35.3978,-4.51199 -19.2766,-0.41273 -21.4683,-0.0788 -23.4708,3.57621 -1.0985,2.0051 -1.2267,4.86354 -1.2267,27.34149 0,24.88305 0.014,25.13161 1.6553,28.45916 2.8324,5.74366 9.085,10.05374 17.6918,12.19551 3.0452,0.75777 8.307,0.95462 21.7202,0.8126 16.9518,-0.17949 17.9113,-0.26363 22.6578,-1.98712 z M 984.0909,262.42363 c 17.2849,-2.98865 27.542,-8.71179 31.5661,-17.61279 2.4005,-7.57898 2.7874,-16.20823 -0.3471,-22.64201 -5.8568,-11.9114 -26.4301,-18.58924 -52.7549,-17.12357 -10.9924,0.61202 -16.0258,1.87194 -19.0124,4.75904 -3.9362,3.80504 -4.5523,6.85733 -4.9664,24.60234 -0.5184,22.21703 0.6361,28.10778 5.7338,29.25468 3.4386,0.77366 33.5701,-0.16382 39.7809,-1.23769 z"
       style="display:inline;fill:#ffffff;fill-opacity:1;stroke-width:0.7075817" />
    <path
       sodipodi:nodetypes="ccccc"
       inkscape:connector-curvature="0"
       id="path34"
       d="m 195.88809,539.95984 -46.888,-53 h 917.15001 l 46.888,53 z"
       style="display:inline;fill:#ffffff;fill-opacity:1;stroke:none;stroke-width:0.80000019;stroke-linejoin:round;stroke-miterlimit:4;stroke-dasharray:none;stroke-opacity:1" />
    <path
       sodipodi:nodetypes="ccccc"
       inkscape:connector-curvature="0"
       id="path34-9"
       d="m 195.88809,645.95984 -46.888,-53 h 917.15001 l 46.888,53 z"
       style="display:inline;fill:#ffffff;fill-opacity:1;stroke:none;stroke-width:0.80000019;stroke-linejoin:round;stroke-miterlimit:4;stroke-dasharray:none;stroke-opacity:1" />
  </g>
  <flowRoot
     xml:space="preserve"
     id="flowRoot854"
     style="font-style:normal;font-variant:normal;font-weight:normal;font-stretch:normal;font-size:48px;line-height:1.25;font-family:'Gill Sans MT';-inkscape-font-specification:'Gill Sans MT';letter-spacing:0px;word-spacing:0px;fill:#000000;fill-opacity:1;stroke:none"
     transform="translate(1.4453125e-4)"><flowRegion
       id="flowRegion856"><rect
         id="rect858"
         width="54.006939"
         height="77.634972"
         x="-1802.4816"
         y="342.39914" /></flowRegion><flowPara
       id="flowPara860" /></flowRoot></svg>
